<svg width="51" height="42" viewBox="0 0 51 42" fill="none" xmlns="http://www.w3.org/2000/svg">
<path d="M25.5 41.2245C39.5833 41.2245 51 32.1138 51 20.8751C51 9.63639 39.5833 0.525635 25.5 0.525635C11.4167 0.525635 0 9.63639 0 20.8751C0 32.1138 11.4167 41.2245 25.5 41.2245Z" fill="url(#paint0_linear_238_24)"/>
<path d="M16.0964 13.5046C17.1939 13.5046 18.0835 12.7946 18.0835 11.9189C18.0835 11.0431 17.1939 10.3332 16.0964 10.3332C14.999 10.3332 14.1094 11.0431 14.1094 11.9189C14.1094 12.7946 14.999 13.5046 16.0964 13.5046Z" fill="white"/>
<path d="M18.0835 15.9808V29.5758C18.0835 30.45 17.1919 31.1615 16.0964 31.1615C15.001 31.1615 14.1094 30.45 14.1094 29.5758V15.9808C14.1094 15.1065 15.001 14.3951 16.0964 14.3951C17.1959 14.3951 18.0835 15.1065 18.0835 15.9808Z" fill="white"/>
<path d="M36.8911 15.9808V24.0752C36.8911 28.743 33.9285 31.4199 28.7669 31.4199C25.8723 31.4199 21.9981 29.8023 20.7267 24.1678C20.4148 22.7894 20.135 21.2452 21.0185 20.0774C21.6942 19.1809 22.154 17.7037 21.3104 16.9347C21.2384 16.8709 20.7747 16.3955 20.8306 15.9106C20.8746 15.5437 21.1785 15.1991 21.6023 14.8609C21.9621 14.5737 22.4579 14.3951 23.0056 14.3951H23.0336C24.1291 14.3951 25.0207 15.1065 25.0207 15.9808C25.0207 16.3764 24.4409 17.4676 24.4409 17.8632C24.4409 18.4503 25.0207 19.3628 25.2246 20.8847C25.3285 21.6536 25.0527 22.7894 25.0207 24.2124C24.9807 25.9928 25.5724 27.5242 26.9598 28.2166C27.4555 28.4655 28.0792 28.6154 28.8509 28.6154C31.5256 28.6154 32.885 27.1318 32.885 24.2124V15.9808C32.885 15.1065 33.7765 14.3951 34.872 14.3951H34.9C35.9995 14.3951 36.8911 15.1065 36.8911 15.9808Z" fill="white"/>
<path d="M23.768 13.3834C24.782 13.0484 25.2633 12.121 24.8432 11.312C24.423 10.5029 23.2604 10.1186 22.2464 10.4536C21.2324 10.7886 20.751 11.716 21.1712 12.5251C21.5914 13.3341 22.754 13.7184 23.768 13.3834Z" fill="white"/>
<defs>
<linearGradient id="paint0_linear_238_24" x1="25.0973" y1="2.45542" x2="25.6338" y2="41.0416" gradientUnits="userSpaceOnUse">
<stop offset="0.2228" stop-color="#F26B69"/>
<stop offset="1" stop-color="#EE3B7D"/>
</linearGradient>
</defs>
</svg>
